<svg xmlns="http://www.w3.org/2000/svg"  fill="#fff" viewBox="0 0 24 24" width="96px" height="96px"><path d="M 5 2 C 3.3550302 2 2 3.3550302 2 5 L 2 17 C 2 18.64497 3.3550302 20 5 20 L 22 20 L 22 4 L 8 4 L 8 2 L 5 2 z M 5 4 L 6 4 L 6 14 L 5 14 C 4.6116523 14 4.3420139 14.278986 4 14.416016 L 4 5 C 4 4.4349698 4.4349698 4 5 4 z M 8 6 L 20 6 L 20 18 L 5 18 C 4.4349698 18 4 17.56503 4 17 C 4 16.43497 4.4349698 16 5 16 L 8 16 L 8 6 z M 14 9 L 15.292969 10.292969 L 14 11.585938 L 12 9.5859375 L 9.2929688 12.292969 L 10.707031 13.707031 L 12 12.414062 L 14 14.414062 L 16.707031 11.707031 L 18 13 L 18 9 L 14 9 z"/></svg>