<svg xmlns="http://www.w3.org/2000/svg"  fill="#828FA3" viewBox="0 0 64 64" width="96px" height="96px"><path d="M15 22h-2c-1.105 0-2-.895-2-2v-2c0-1.105.895-2 2-2h2c1.105 0 2 .895 2 2v2C17 21.105 16.105 22 15 22zM51 21H24c-1.104 0-2-.896-2-2s.896-2 2-2h27c1.104 0 2 .896 2 2S52.104 21 51 21zM15 35h-2c-1.105 0-2-.895-2-2v-2c0-1.105.895-2 2-2h2c1.105 0 2 .895 2 2v2C17 34.105 16.105 35 15 35zM51 34H24c-1.104 0-2-.896-2-2s.896-2 2-2h27c1.104 0 2 .896 2 2S52.104 34 51 34zM15 48h-2c-1.105 0-2-.895-2-2v-2c0-1.105.895-2 2-2h2c1.105 0 2 .895 2 2v2C17 47.105 16.105 48 15 48zM51 47H24c-1.104 0-2-.896-2-2s.896-2 2-2h27c1.104 0 2 .896 2 2S52.104 47 51 47z"/></svg>